<?xml version="1.0" standalone="no"?>
<!DOCTYPE svg PUBLIC "-//W3C//DTD SVG 20010904//EN"
 "http://www.w3.org/TR/2001/REC-SVG-20010904/DTD/svg10.dtd">
<svg version="1.0" xmlns="http://www.w3.org/2000/svg"
 width="600.000000pt" height="600.000000pt" viewBox="0 0 600.000000 600.000000"
 preserveAspectRatio="xMidYMid meet">
<metadata>
Created by potrace 1.14, written by Peter Selinger 2001-2017
</metadata>
<g transform="translate(0.000000,600.000000) scale(0.100000,-0.100000)"
fill="#000000" stroke="none">
<path d="M4377 5024 c-8 -9 -8 -120 2 -213 l6 -65 55 -11 c142 -29 210 -103
254 -276 14 -56 16 -130 16 -508 0 -266 4 -461 10 -489 6 -26 16 -69 22 -97
29 -133 125 -260 235 -312 50 -24 54 -28 37 -40 -10 -7 -22 -13 -26 -13 -5 0
-36 -18 -69 -41 -100 -67 -156 -163 -191 -324 -6 -29 -14 -257 -18 -550 -7
-522 -8 -530 -54 -636 -33 -78 -143 -149 -230 -149 -25 0 -38 -6 -46 -19 -5
-11 -10 -74 -10 -141 0 -94 3 -122 14 -126 17 -6 168 13 216 28 214 67 336
201 392 433 17 71 20 137 27 590 8 467 10 515 28 570 48 145 126 222 251 246
l62 12 0 133 0 134 -45 0 c-84 0 -185 71 -233 165 -54 106 -54 104 -62 645 -6
418 -10 518 -24 580 -10 41 -21 84 -26 95 -5 11 -17 40 -28 65 -62 143 -196
251 -364 294 -68 18 -191 30 -201 20z"/>
<path d="M1490 4984 c-168 -25 -280 -72 -362 -151 -61 -60 -83 -91 -118 -167
-60 -130 -63 -155 -70 -686 -7 -519 -11 -559 -60 -665 -49 -107 -132 -169
-240 -182 l-50 -6 0 -128 c0 -141 -5 -130 70 -144 54 -10 92 -26 132 -57 37
-29 89 -103 102 -148 39 -129 39 -127 46 -630 7 -525 11 -567 59 -673 12 -25
21 -49 21 -52 0 -14 82 -116 122 -150 88 -76 232 -129 370 -137 l63 -3 0 140
0 140 -55 6 c-149 17 -230 103 -262 279 -6 30 -14 276 -18 545 -8 541 -8 536
-77 673 -41 82 -91 131 -177 176 -31 16 -56 32 -56 36 0 3 21 16 48 28 77 35
144 101 185 184 69 137 69 132 77 668 8 568 13 606 96 717 33 44 120 91 185
100 l54 8 3 143 3 142 -33 -1 c-18 -1 -44 -3 -58 -5z"/>
<path d="M1607 4610 c-85 -22 -154 -77 -195 -154 l-27 -51 -3 -475 c-2 -261 0
-490 3 -508 6 -31 8 -32 45 -27 37 4 130 -26 130 -43 0 -4 10 -12 23 -18 12
-6 37 -19 55 -29 40 -21 117 -30 127 -16 3 6 21 11 39 11 30 0 89 16 141 39
11 5 39 17 63 26 32 14 42 23 42 41 0 13 -4 26 -10 29 -18 11 -10 72 15 118
29 52 27 56 -43 66 -47 6 -47 6 -52 51 -3 25 -14 61 -24 80 -33 61 -36 69 -36
89 0 39 104 94 210 112 83 13 91 8 84 -55 -8 -64 15 -123 71 -185 41 -45 76
-58 215 -81 41 -7 78 -16 82 -19 4 -4 -1 -25 -11 -46 -10 -22 -24 -56 -31 -75
-15 -39 -78 -140 -88 -140 -4 0 -7 -35 -8 -77 -1 -43 -4 -90 -8 -105 -9 -40
-13 -68 -21 -134 -4 -33 -15 -84 -24 -114 -12 -38 -18 -96 -20 -190 -2 -139
-16 -204 -61 -289 -27 -51 -136 -161 -159 -161 -10 0 -25 -30 -22 -43 1 -4
-12 -12 -28 -18 -27 -10 -75 -60 -99 -104 -5 -11 -15 -43 -21 -70 -5 -28 -15
-69 -22 -92 -11 -37 -11 -46 6 -77 11 -20 25 -36 32 -36 7 0 13 -12 13 -26 0
-23 3 -25 29 -19 25 5 30 3 39 -23 5 -16 22 -40 36 -54 24 -21 34 -24 91 -21
58 3 66 1 79 -19 22 -34 57 -179 51 -208 -5 -23 -10 -25 -39 -22 -23 3 -35 -1
-39 -11 -8 -21 197 -31 450 -22 197 8 198 8 220 34 13 14 23 29 23 33 0 4 10
8 23 10 18 2 23 10 25 41 3 32 0 38 -24 47 -21 8 -25 13 -15 23 9 9 14 9 21
-2 7 -12 11 -12 24 1 14 15 14 17 0 22 -9 3 -21 3 -26 -1 -6 -3 -8 -1 -4 5 4
7 -6 12 -26 14 -39 4 -48 23 -13 32 14 4 25 12 25 19 0 23 -40 72 -62 78 -18
4 -23 12 -21 34 1 16 8 32 15 37 13 7 118 14 148 8 8 -1 43 -3 77 -4 33 -1 67
-7 75 -14 10 -8 18 -8 25 -1 19 19 270 22 369 5 49 -8 133 -18 187 -22 64 -4
111 -13 135 -25 35 -19 86 -24 114 -14 10 4 13 19 12 48 -2 23 -3 54 -3 69 -1
20 -6 26 -21 25 -11 -1 -20 -4 -20 -7 0 -3 -17 -12 -37 -19 -21 -8 -51 -23
-67 -34 -27 -19 -30 -19 -57 -3 -18 11 -68 21 -132 27 -311 28 -359 36 -412
68 -20 11 -48 21 -63 21 -15 0 -60 11 -100 25 -41 14 -80 25 -87 25 -7 0 -18
6 -24 14 -6 7 -34 16 -61 20 -68 9 -80 15 -80 38 0 50 109 136 173 136 28 -1
37 -24 17 -44 -13 -13 34 -58 77 -72 32 -11 82 -4 120 16 12 7 30 12 40 12 10
0 31 16 47 36 26 32 27 38 12 46 -20 11 -21 28 -1 28 8 0 19 9 25 21 9 16 8
25 -6 40 -14 16 -15 22 -5 32 10 9 15 8 27 -7 8 -11 14 -28 14 -38 0 -10 6
-18 13 -18 6 0 23 -12 36 -25 19 -21 20 -25 6 -25 -28 0 -7 -17 27 -23 43 -6
82 9 74 28 -4 10 1 15 14 15 22 0 27 16 8 23 -7 3 -3 6 10 6 12 1 22 -5 22
-13 0 -7 9 -16 20 -19 26 -7 25 3 0 31 -12 12 -33 22 -48 22 -19 0 -35 10 -54
34 -16 19 -28 41 -28 48 0 12 -69 83 -127 132 -34 28 -60 14 -55 -29 4 -30 1
-35 -17 -35 -12 0 -21 -4 -21 -9 0 -5 -25 -8 -55 -7 -71 1 -82 16 -49 67 27
44 31 86 9 115 -8 10 -15 33 -15 51 0 21 -10 44 -29 65 -36 42 -100 146 -148
240 -16 32 -17 110 -2 125 12 12 14 96 4 143 -3 14 -7 52 -10 85 -4 68 -19
194 -35 305 -7 41 -12 84 -11 95 3 193 -2 226 -46 274 -15 17 -20 32 -17 51 4
19 -1 33 -22 53 -14 15 -32 27 -39 27 -7 0 -25 16 -39 35 -22 28 -34 35 -61
35 -43 0 -65 9 -65 25 0 8 -9 17 -20 20 -11 4 -18 10 -15 15 3 4 -2 10 -10 14
-8 3 -12 12 -9 21 4 8 1 22 -6 30 -13 15 4 25 65 41 37 9 34 60 -6 105 -25 28
-27 35 -14 37 9 2 25 -4 36 -14 10 -9 22 -14 25 -11 7 7 -102 79 -143 94 -76
28 -166 34 -523 38 -223 3 -390 1 -413 -5z m988 -120 c3 -5 1 -10 -4 -10 -6 0
-11 5 -11 10 0 6 2 10 4 10 3 0 8 -4 11 -10z m-245 -671 c0 -36 -20 -81 -34
-76 -10 4 -11 77 -1 104 8 23 35 2 35 -28z m793 -1621 c-6 -32 -18 -48 -37
-48 -5 0 -1 9 9 20 9 10 15 26 12 34 -6 15 0 26 14 26 5 0 6 -15 2 -32z"/>
<path d="M3673 4593 c-29 -2 -53 -8 -53 -12 0 -5 -25 -11 -56 -14 -30 -3 -66
-12 -78 -21 -13 -8 -38 -17 -57 -21 -19 -4 -47 -17 -62 -29 -27 -21 -27 -24
-12 -40 9 -9 23 -16 31 -16 10 0 13 -7 9 -22 -3 -13 -1 -29 4 -37 8 -12 12
-13 26 -1 12 10 21 10 41 1 14 -6 33 -11 44 -11 10 0 20 -5 22 -11 3 -9 10 -9
27 1 17 8 25 9 30 1 4 -6 25 -10 47 -8 34 2 39 -1 42 -22 4 -22 6 -23 50 -16
74 13 196 14 211 2 7 -7 65 -12 135 -14 153 -3 189 -8 238 -33 l38 -20 -6 25
c-6 25 9 35 21 15 3 -5 11 -10 16 -10 17 0 -2 21 -28 31 -13 5 -21 14 -18 19
9 15 -11 37 -42 45 -14 3 -44 21 -65 40 -33 27 -46 32 -72 28 -22 -3 -36 0
-45 11 -7 9 -24 16 -36 16 -13 0 -36 13 -52 29 -29 29 -80 40 -212 45 -25 1
-46 7 -49 14 -2 7 -10 12 -18 12 -8 0 -11 6 -8 15 4 8 2 14 -2 13 -5 -1 -33
-3 -61 -5z m-75 -57 c10 -11 -29 -18 -56 -11 -25 7 -25 8 -7 15 20 7 53 5 63
-4z"/>
<path d="M4090 4511 c0 -5 -8 -12 -17 -14 -10 -3 -3 -5 16 -6 29 -1 32 1 21
14 -14 17 -20 19 -20 6z"/>
<path d="M3680 4135 c-7 -8 -18 -15 -24 -15 -25 0 -76 -56 -76 -83 0 -25 2
-27 21 -17 16 9 117 15 176 11 7 -1 11 -15 10 -36 -2 -39 -14 -47 -19 -12 -3
19 -8 22 -48 20 -25 -1 -60 -3 -78 -4 -40 -1 -117 -70 -128 -113 -3 -14 -10
-23 -15 -20 -5 3 -9 -2 -9 -10 0 -24 18 -28 52 -12 41 21 65 22 48 1 -12 -15
-6 -35 11 -35 10 0 58 20 144 60 57 27 119 39 168 33 48 -7 57 -16 57 -60 0
-34 16 -43 38 -21 8 8 15 8 27 -2 19 -16 19 -37 0 -74 -21 -39 -19 -46 16 -89
19 -24 39 -37 54 -37 25 0 55 33 55 62 0 23 18 32 36 17 11 -9 18 -9 32 3 9 9
22 14 27 12 6 -2 16 9 23 24 6 16 21 38 32 50 25 27 25 42 0 42 -21 0 -29 33
-10 45 18 11 10 26 -12 24 -32 -5 -48 8 -48 37 0 19 -5 24 -24 24 -13 0 -34 8
-47 18 -46 35 -177 112 -190 112 -8 0 -22 7 -32 14 -9 7 -27 11 -40 9 -22 -4
-168 19 -198 31 -9 4 -21 0 -29 -9z m194 -106 c14 -7 23 -16 20 -20 -3 -5 2
-9 10 -9 9 0 16 5 16 10 0 7 6 7 20 0 11 -6 20 -8 20 -5 0 4 6 3 13 -2 6 -4
19 -7 27 -5 19 2 47 -15 38 -23 -4 -4 -35 -8 -70 -9 -35 -2 -74 -6 -88 -10
-22 -6 -27 -3 -42 31 -13 28 -15 39 -5 45 15 10 12 10 41 -3z m254 -67 c2 -7
-3 -12 -12 -12 -9 0 -16 7 -16 16 0 17 22 14 28 -4z"/>
<path d="M1386 3021 c-3 -42 -6 -366 -6 -721 -1 -724 -3 -700 72 -785 22 -25
64 -58 92 -73 48 -25 60 -27 206 -30 85 -1 188 1 229 5 72 8 74 9 56 26 -12
13 -21 15 -28 8 -16 -16 -37 -13 -37 4 0 8 -6 12 -14 9 -16 -6 -46 52 -46 90
0 14 -14 46 -31 71 -18 26 -43 79 -56 118 -14 40 -33 81 -43 92 -9 11 -22 53
-29 95 -7 41 -16 79 -22 85 -5 5 -9 44 -9 86 0 73 -2 79 -35 119 -19 23 -35
45 -36 48 0 4 -2 27 -3 52 -1 25 -9 60 -19 79 -9 19 -17 44 -17 55 0 38 -38
177 -56 204 -10 15 -19 45 -21 67 -4 54 -8 77 -17 98 -5 10 -4 23 2 30 7 8 6
18 -4 32 -11 14 -17 16 -22 8 -4 -7 -12 -9 -18 -5 -18 12 -54 123 -48 147 4
16 -1 30 -14 43 -19 19 -19 19 -26 -57z"/>
<path d="M3392 2707 c-23 -23 -42 -47 -42 -53 0 -14 127 -67 145 -61 31 13 31
110 -1 142 -26 26 -58 17 -102 -28z"/>
<path d="M3570 2350 c0 -5 7 -10 15 -10 8 0 15 5 15 10 0 6 -7 10 -15 10 -8 0
-15 -4 -15 -10z"/>
<path d="M3380 2236 c0 -2 9 -6 20 -9 11 -3 18 -1 14 4 -5 9 -34 13 -34 5z"/>
<path d="M4090 2065 c0 -2 10 -10 23 -16 20 -11 21 -11 8 4 -13 16 -31 23 -31
12z"/>
<path d="M4475 1890 c3 -5 8 -10 11 -10 2 0 4 5 4 10 0 6 -5 10 -11 10 -5 0
-7 -4 -4 -10z"/>
<path d="M4552 1811 c4 -28 3 -29 -24 -24 -29 6 -40 -13 -13 -23 11 -5 12 -9
2 -19 -8 -9 -17 -10 -30 -3 -35 18 -46 3 -41 -54 3 -29 9 -57 14 -62 7 -7 10
-6 10 2 0 23 25 12 43 -19 10 -18 19 -30 21 -28 9 9 -7 59 -19 59 -16 0 -40
28 -31 37 3 3 17 1 31 -5 15 -7 25 -8 25 -2 0 6 5 9 12 8 13 -3 14 5 18 87 3
69 2 75 -11 75 -7 0 -10 -12 -7 -29z"/>
<path d="M3030 1620 c0 -5 5 -10 11 -10 5 0 7 5 4 10 -3 6 -8 10 -11 10 -2 0
-4 -4 -4 -10z"/>
<path d="M3231 1566 c-1 -15 -4 -16 -15 -7 -11 10 -17 7 -30 -11 -12 -17 -18
-20 -28 -10 -21 21 -37 13 -41 -20 l-4 -33 -1 31 c-3 47 -27 50 -77 8 -43 -35
-44 -36 -28 -60 8 -13 20 -24 27 -25 6 -1 34 -3 61 -5 87 -8 189 -8 217 -1 19
5 28 16 33 39 8 36 -12 59 -46 51 -22 -6 -47 12 -59 42 -8 18 -9 18 -9 1z"/>
<path d="M4440 1560 c0 -5 7 -10 15 -10 8 0 15 5 15 10 0 6 -7 10 -15 10 -8 0
-15 -4 -15 -10z"/>
<path d="M4444 1509 c-8 -13 25 -24 37 -12 7 7 3 12 -10 16 -12 3 -24 1 -27
-4z"/>
</g>
</svg>
